<svg width="270" height="270" viewBox="0 0 270 270" fill="none" xmlns="http://www.w3.org/2000/svg">
<g clip-path="url(#clip0_16_4)">
<path d="M222.275 25.3124C218.478 23.8358 214.576 22.6757 210.674 21.8846H210.726C210.726 21.8846 144.808 5.58973 74.4081 37.4413H74.4608C54.6854 45.4042 37.9159 61.5409 29.4257 83.4784C20.9354 105.416 22.3593 128.619 31.5878 147.814C61.9101 218.531 121.289 251.068 121.658 251.226C125.086 253.23 128.672 255.023 132.521 256.5C163.582 268.576 198.123 257.871 219.006 232.506C219.006 232.506 253.863 192.902 268.418 113.168C275.801 76.2538 257.08 38.8124 222.275 25.3124Z" fill="url(#paint0_linear_16_4)"/>
<path opacity="0.7" d="M198.492 16.1366C194.695 14.66 190.793 13.4999 186.891 12.7089H186.943C186.943 12.7089 120.973 -3.58605 50.6249 28.2655H50.6776C30.9022 36.2284 14.1327 52.3651 5.64247 74.3026C-2.84776 96.2401 -1.42393 119.443 7.80458 138.639C38.1796 209.355 97.5585 241.84 97.8749 242.051C101.303 244.055 104.889 245.848 108.738 247.324C139.799 259.4 174.34 248.695 195.223 223.33C195.223 223.33 230.08 183.726 244.635 103.992C252.07 67.078 233.297 29.6366 198.492 16.1366Z" fill="url(#paint1_linear_16_4)"/>
<path opacity="0.8" d="M235.881 97.5586C233.772 94.5 231.399 91.7051 228.92 89.1211H228.973C228.973 89.1211 187.682 43.6113 118.811 31.957H118.863C99.9845 27.9492 79.2071 31.6406 61.7521 43.8223C44.297 56.0039 33.6446 74.1445 30.8497 93.1816C17.9298 161.631 46.09 216.053 46.2482 216.369C47.7775 219.586 49.6232 222.75 51.7325 225.809C68.9767 250.594 100.301 259.98 128.777 251.437C128.777 251.437 174.973 239.309 226.125 186.838C250.383 162.896 255.182 125.297 235.881 97.5586Z" fill="url(#paint2_linear_16_4)"/>
</g>
<path d="M51 108.092L51 143.589" stroke="black" stroke-width="10" stroke-linecap="round"/>
<path d="M51 108.092L51 143.589" stroke="#6547AF" stroke-width="10" stroke-linecap="round"/>
<path d="M148.73 56L148.73 196.603" stroke="#6547AF" stroke-width="10" stroke-linecap="round"/>
<path d="M124.298 83.1985L124.298 168.943" stroke="#7756CA" stroke-width="10" stroke-linecap="round"/>
<path d="M99.4043 65.6809L99.4043 186.461" stroke="#6547AF" stroke-width="10" stroke-linecap="round"/>
<path d="M172.702 168.943L172.702 83.1986" stroke="#7756CA" stroke-width="10" stroke-linecap="round"/>
<path d="M75.4326 97.0284L75.4326 155.575" stroke="#7756CA" stroke-width="10" stroke-linecap="round"/>
<path d="M197.596 186.461L197.596 65.6808" stroke="#6547AF" stroke-width="10" stroke-linecap="round"/>
<path d="M221.567 155.113L221.567 96.5673" stroke="#7756CA" stroke-width="10" stroke-linecap="round"/>
<path d="M246 144.05L246 108.553" stroke="#6547AF" stroke-width="10" stroke-linecap="round"/>
<defs>
<linearGradient id="paint0_linear_16_4" x1="59.7902" y1="196.105" x2="259.555" y2="57.0211" gradientUnits="userSpaceOnUse">
<stop stop-color="#FFB2F0"/>
<stop offset="0.0388365" stop-color="#F7ABF1"/>
<stop offset="0.2532" stop-color="#CC8BF4"/>
<stop offset="0.4616" stop-color="#AB71F7"/>
<stop offset="0.6599" stop-color="#935FF9"/>
<stop offset="0.8441" stop-color="#8554FB"/>
<stop offset="1" stop-color="#8050FB"/>
</linearGradient>
<linearGradient id="paint1_linear_16_4" x1="36.0309" y1="186.92" x2="235.796" y2="47.8361" gradientUnits="userSpaceOnUse">
<stop stop-color="#FFB2F0"/>
<stop offset="0.0388365" stop-color="#F7ABF1"/>
<stop offset="0.2532" stop-color="#CC8BF4"/>
<stop offset="0.4616" stop-color="#AB71F7"/>
<stop offset="0.6599" stop-color="#935FF9"/>
<stop offset="0.8441" stop-color="#8554FB"/>
<stop offset="1" stop-color="#8050FB"/>
</linearGradient>
<linearGradient id="paint2_linear_16_4" x1="31.6281" y1="196.889" x2="215.79" y2="68.6686" gradientUnits="userSpaceOnUse">
<stop stop-color="#FFB2F0"/>
<stop offset="0.0388365" stop-color="#F7ABF1"/>
<stop offset="0.2532" stop-color="#CC8BF4"/>
<stop offset="0.4616" stop-color="#AB71F7"/>
<stop offset="0.6599" stop-color="#935FF9"/>
<stop offset="0.8441" stop-color="#8554FB"/>
<stop offset="1" stop-color="#8050FB"/>
</linearGradient>
<clipPath id="clip0_16_4">
<rect width="270" height="270" fill="white"/>
</clipPath>
</defs>
</svg>
