<svg width="38" height="47" viewBox="0 0 38 47" fill="none" xmlns="http://www.w3.org/2000/svg">
<path d="M19 32.4138C21.8472 32.4106 24.5768 31.2997 26.5901 29.3248C28.6034 27.3499 29.7359 24.6722 29.7391 21.8793V10.5345C29.7391 7.74056 28.6077 5.06108 26.5937 3.08548C24.5797 1.10988 21.8482 0 19 0C16.1518 0 13.4203 1.10988 11.4063 3.08548C9.39231 5.06108 8.26087 7.74056 8.26087 10.5345V21.8793C8.26415 24.6722 9.39664 27.3499 11.4099 29.3248C13.4232 31.2997 16.1528 32.4106 19 32.4138ZM13.2174 10.5345C13.2174 9.03006 13.8266 7.58726 14.9111 6.52348C15.9955 5.4597 17.4664 4.86207 19 4.86207C20.5336 4.86207 22.0045 5.4597 23.0889 6.52348C24.1734 7.58726 24.7826 9.03006 24.7826 10.5345V21.8793C24.7826 23.3837 24.1734 24.8265 23.0889 25.8903C22.0045 26.9541 20.5336 27.5517 19 27.5517C17.4664 27.5517 15.9955 26.9541 14.9111 25.8903C13.8266 24.8265 13.2174 23.3837 13.2174 21.8793V10.5345ZM21.4783 40.3592V44.569C21.4783 45.2137 21.2172 45.8321 20.7524 46.288C20.2876 46.7439 19.6573 47 19 47C18.3427 47 17.7124 46.7439 17.2476 46.288C16.7828 45.8321 16.5217 45.2137 16.5217 44.569V40.3592C11.9536 39.7636 7.76092 37.5621 4.72238 34.1634C1.68383 30.7647 0.00583919 26.3998 0 21.8793C0 21.2346 0.261101 20.6162 0.725865 20.1603C1.19063 19.7044 1.82099 19.4483 2.47826 19.4483C3.13554 19.4483 3.76589 19.7044 4.23066 20.1603C4.69542 20.6162 4.95652 21.2346 4.95652 21.8793C4.95652 25.5329 6.4361 29.0368 9.06976 31.6203C11.7034 34.2038 15.2754 35.6552 19 35.6552C22.7246 35.6552 26.2966 34.2038 28.9302 31.6203C31.5639 29.0368 33.0435 25.5329 33.0435 21.8793C33.0435 21.2346 33.3046 20.6162 33.7693 20.1603C34.2341 19.7044 34.8645 19.4483 35.5217 19.4483C36.179 19.4483 36.8094 19.7044 37.2741 20.1603C37.7389 20.6162 38 21.2346 38 21.8793C37.9942 26.3998 36.3162 30.7647 33.2776 34.1634C30.2391 37.5621 26.0464 39.7636 21.4783 40.3592Z" fill="white"/>
</svg>
